<svg id="Layer_1" data-name="Layer 1" xmlns="http://www.w3.org/2000/svg" xmlns:xlink="http://www.w3.org/1999/xlink" viewBox="0 0 908.88 485.97"><defs><style>.cls-1{fill:none;}.cls-2{fill:#e23237;}.cls-11,.cls-15,.cls-2,.cls-3,.cls-4{fill-rule:evenodd;}.cls-3{fill:#b52e31;}.cls-19,.cls-4,.cls-9{fill:#fff;}.cls-5{fill:#764abc;}.cls-6{fill:#3d3d3d;}.cls-7{fill:#5a0fc8;}.cls-8{fill:#53c1de;}.cls-10{fill:#744c9e;}.cls-11{fill:#647891;}.cls-12{clip-path:url(#clip-path);}.cls-13{fill:#112b49;}.cls-14{clip-path:url(#clip-path-2);}.cls-15{fill:#e535ab;}.cls-16{clip-path:url(#clip-path-3);}.cls-17{clip-path:url(#clip-path-4);}.cls-18{fill:url(#linear-gradient);}.cls-19{stroke:#0f22d3;stroke-miterlimit:10;stroke-width:1.61px;}.cls-20{fill:#98b2d8;}.cls-21{fill:#b1c3e8;}.cls-22{fill:#b7cae5;}.cls-23{fill:#97b3d1;}.cls-24{fill:#ced9ea;}.cls-25{fill:#b6c5dd;}.cls-26{fill:#799cbf;}.cls-27{fill:#5d7ca0;}.cls-28{fill:#f2f4f9;}.cls-29{fill:#c1cfe5;}.cls-30{fill:#0a3d62;}.cls-31{fill:#1f395e;opacity:0.22;}.cls-31,.cls-40{isolation:isolate;}.cls-32{fill:#3c6382;}.cls-33{fill:#6a89cc;}.cls-34{fill:#4a69bd;}.cls-35{fill:#feb19e;}.cls-36{fill:#ff856a;}.cls-37{fill:#c1c8d3;}.cls-38{fill:url(#linear-gradient-2);}.cls-39{fill:url(#linear-gradient-3);}.cls-40{fill:#eaeced;opacity:0.4;}.cls-41{fill:#5c311e;}.cls-42{fill:#242422;}.cls-43{fill:#f7df1e;}.cls-44{fill:#5d4037;}.cls-45{fill:#4caf50;}.cls-46{fill:#dcedc8;}.cls-47{fill:#81c784;}.cls-48{fill:#83cd29;}.cls-49{fill:#3178c6;}</style><clipPath id="clip-path" transform="translate(-9.46 -7.42)"><rect class="cls-1" x="65.43" y="99.7" width="58" height="58"/></clipPath><clipPath id="clip-path-2" transform="translate(-9.46 -7.42)"><rect class="cls-1" x="34.24" y="288.62" width="58" height="66"/></clipPath><clipPath id="clip-path-3" transform="translate(-9.46 -7.42)"><rect id="SVGID" class="cls-1" x="75.12" y="17.36" width="796.9" height="466.01"/></clipPath><clipPath id="clip-path-4" transform="translate(-9.46 -7.42)"><path id="SVGID-2" data-name="SVGID" class="cls-1" d="M164.89,274.64c31.45-42-27.83-89.4,38-161.57,17.18-13.72,74.37-45.61,162.45-28.2,76-22.92,65.55-61.66,144.34-61.66,80,0,107.51,89.29,130,117.76,44.46,6.33,106.53,8.31,128.24,49.18,14.66,27.6-13.61,92.53,15.29,113.9C830.35,345.88,856,328,869.5,420.2c-2.55,49.68-13,58.79-13,58.79H149.77S3.88,395.17,164.89,274.64Z"/></clipPath><linearGradient id="linear-gradient" x1="-626.17" y1="451.88" x2="-150.85" y2="843.87" gradientTransform="matrix(-1.46, 0, 0, 1.46, -88.45, -689.18)" gradientUnits="userSpaceOnUse"><stop offset="0" stop-color="#21d4fd"/><stop offset="0.25" stop-color="#21d4fd"/><stop offset="0.36" stop-color="#21d4fd"/><stop offset="0.38" stop-color="#21d4fd"/><stop offset="0.44" stop-color="#21d4fd"/><stop offset="0.45" stop-color="#21d4fd"/><stop offset="0.46" stop-color="#21d4fd"/><stop offset="0.46" stop-color="#23d2fd"/><stop offset="0.47" stop-color="#25d1fd"/><stop offset="0.47" stop-color="#27cffd"/><stop offset="0.48" stop-color="#2acdfd"/><stop offset="0.48" stop-color="#2ccbfd"/><stop offset="0.48" stop-color="#2ecafd"/><stop offset="0.49" stop-color="#30c8fd"/><stop offset="0.49" stop-color="#33c7fd"/><stop offset="0.5" stop-color="#35c5fd"/><stop offset="0.5" stop-color="#37c4fd"/><stop offset="0.5" stop-color="#39c2fd"/><stop offset="0.51" stop-color="#3bc1fd"/><stop offset="0.51" stop-color="#3dbffd"/><stop offset="0.52" stop-color="#3fbefd"/><stop offset="0.52" stop-color="#42bcfd"/><stop offset="0.52" stop-color="#44bafd"/><stop offset="0.53" stop-color="#46b9fe"/><stop offset="0.53" stop-color="#48b7fe"/><stop offset="0.54" stop-color="#4ab6fe"/><stop offset="0.54" stop-color="#4cb4fe"/><stop offset="0.54" stop-color="#4eb3fe"/><stop offset="0.55" stop-color="#51b1fe"/><stop offset="0.55" stop-color="#53b0fe"/><stop offset="0.55" stop-color="#55aefe"/><stop offset="0.56" stop-color="#57adfe"/><stop offset="0.56" stop-color="#59abfe"/><stop offset="0.57" stop-color="#5baafe"/><stop offset="0.57" stop-color="#5ca9fe"/><stop offset="0.57" stop-color="#5ea8fe"/><stop offset="0.58" stop-color="#60a6fe"/><stop offset="0.58" stop-color="#61a5fe"/><stop offset="0.59" stop-color="#63a4fe"/><stop offset="0.59" stop-color="#65a3fe"/><stop offset="0.59" stop-color="#66a1fe"/><stop offset="0.6" stop-color="#68a0fe"/><stop offset="0.6" stop-color="#6a9ffe"/><stop offset="0.61" stop-color="#6b9efe"/><stop offset="0.61" stop-color="#6d9cfe"/><stop offset="0.61" stop-color="#6f9bfe"/><stop offset="0.62" stop-color="#709afe"/><stop offset="0.62" stop-color="#7299fe"/><stop offset="0.63" stop-color="#7497fe"/><stop offset="0.63" stop-color="#7596fe"/><stop offset="0.63" stop-color="#7795fe"/><stop offset="0.64" stop-color="#7994fe"/><stop offset="0.64" stop-color="#7a93fe"/><stop offset="0.64" stop-color="#7c92fe"/><stop offset="0.65" stop-color="#7d91fe"/><stop offset="0.65" stop-color="#7e90fe"/><stop offset="0.66" stop-color="#808ffe"/><stop offset="0.66" stop-color="#818efe"/><stop offset="0.66" stop-color="#828dfe"/><stop offset="0.67" stop-color="#848cfe"/><stop offset="0.67" stop-color="#858bfe"/><stop offset="0.68" stop-color="#868afe"/><stop offset="0.68" stop-color="#8889fe"/><stop offset="0.68" stop-color="#8988ff"/><stop offset="0.69" stop-color="#8a88ff"/><stop offset="0.69" stop-color="#8b87ff"/><stop offset="0.7" stop-color="#8d86ff"/><stop offset="0.7" stop-color="#8e85ff"/><stop offset="0.7" stop-color="#8f84ff"/><stop offset="0.71" stop-color="#9183ff"/><stop offset="0.71" stop-color="#9282ff"/><stop offset="0.71" stop-color="#9381ff"/><stop offset="0.72" stop-color="#9580ff"/><stop offset="0.72" stop-color="#967fff"/><stop offset="0.73" stop-color="#977fff"/><stop offset="0.73" stop-color="#987eff"/><stop offset="0.73" stop-color="#987dff"/><stop offset="0.74" stop-color="#997dff"/><stop offset="0.74" stop-color="#9a7cff"/><stop offset="0.75" stop-color="#9b7bff"/><stop offset="0.75" stop-color="#9c7bff"/><stop offset="0.75" stop-color="#9d7aff"/><stop offset="0.76" stop-color="#9e79ff"/><stop offset="0.76" stop-color="#9f79ff"/><stop offset="0.77" stop-color="#a078ff"/><stop offset="0.77" stop-color="#a177ff"/><stop offset="0.77" stop-color="#a277ff"/><stop offset="0.78" stop-color="#a376ff"/><stop offset="0.78" stop-color="#a375ff"/><stop offset="0.79" stop-color="#a475ff"/><stop offset="0.79" stop-color="#a574ff"/><stop offset="0.79" stop-color="#a673ff"/><stop offset="0.8" stop-color="#a773ff"/><stop offset="0.8" stop-color="#a872ff"/><stop offset="0.8" stop-color="#a972ff"/><stop offset="0.81" stop-color="#a971ff"/><stop offset="0.81" stop-color="#aa71ff"/><stop offset="0.82" stop-color="#aa71ff"/><stop offset="0.82" stop-color="#ab70ff"/><stop offset="0.82" stop-color="#ab70ff"/><stop offset="0.83" stop-color="#ac6fff"/><stop offset="0.83" stop-color="#ac6fff"/><stop offset="0.84" stop-color="#ad6fff"/><stop offset="0.84" stop-color="#ad6eff"/><stop offset="0.84" stop-color="#ae6eff"/><stop offset="0.85" stop-color="#ae6eff"/><stop offset="0.85" stop-color="#af6dff"/><stop offset="0.86" stop-color="#af6dff"/><stop offset="0.86" stop-color="#b06cff"/><stop offset="0.86" stop-color="#b06cff"/><stop offset="0.87" stop-color="#b16cff"/><stop offset="0.87" stop-color="#b16bff"/><stop offset="0.88" stop-color="#b26bff"/><stop offset="0.88" stop-color="#b26bff"/><stop offset="0.88" stop-color="#b36aff"/><stop offset="0.89" stop-color="#b36aff"/><stop offset="0.91" stop-color="#b46aff"/><stop offset="0.92" stop-color="#b469ff"/><stop offset="0.94" stop-color="#b569ff"/><stop offset="0.95" stop-color="#b668ff"/><stop offset="0.97" stop-color="#b767ff"/><stop offset="1" stop-color="#b767ff"/></linearGradient><linearGradient id="linear-gradient-2" x1="560.83" y1="33.56" x2="588.03" y2="33.56" gradientTransform="matrix(1, 0, 0, -1, 0, 482)" gradientUnits="userSpaceOnUse"><stop offset="0" stop-color="#1f3a65"/><stop offset="1" stop-color="#294a7a"/></linearGradient><linearGradient id="linear-gradient-3" x1="603.47" y1="126.86" x2="569.15" y2="58.74" gradientTransform="matrix(1, 0, 0, -1, 0, 482)" gradientUnits="userSpaceOnUse"><stop offset="0" stop-color="#e2e8f7"/><stop offset="1" stop-color="#fff"/></linearGradient></defs><path class="cls-2" d="M773.1,112.23l28.39-10.12,29.13,10-4.71,37.54-24.42,13.51-24-13.34Z" transform="translate(-9.46 -7.42)"/><path class="cls-3" d="M830.62,112.06l-29.13-10v61l24.42-13.51Z" transform="translate(-9.46 -7.42)"/><path class="cls-4" d="M801.57,121.87l6,12.5H796.34Zm0-12.63-17.73,39.35,6.6-.14,3.57-8.89h15.83l3.88,9,6.29.13Z" transform="translate(-9.46 -7.42)"/><path class="cls-5" d="M858,199.64a3.9,3.9,0,0,0,3.88,3.74H862a3.88,3.88,0,0,0-.14-7.76h-.13a1.17,1.17,0,0,0-.49.07,25.32,25.32,0,0,1-3.6-15.38,18.59,18.59,0,0,1,4.09-10.74c2-2.57,5.88-3.81,8.52-3.88,7.34-.14,10.46,9,10.67,12.68.9.2,2.42.69,3.46,1-.83-11.23-7.76-17-14.41-17-6.24,0-12,4.5-14.27,11.16-3.19,8.87-1.11,17.39,2.77,24.11A3.14,3.14,0,0,0,858,199.64Zm35.2-9.77c-5.27-6.17-13-9.56-21.89-9.56H870.2a3.81,3.81,0,0,0-3.4-2.08h-.14a3.88,3.88,0,1,0,.14,7.76h.14a3.91,3.91,0,0,0,3.4-2.36h1.24a26.4,26.4,0,0,1,14.76,4.51,18.49,18.49,0,0,1,7.34,8.87,9.54,9.54,0,0,1-.14,8.17,10.17,10.17,0,0,1-9.49,5.68,17.83,17.83,0,0,1-6.79-1.45c-.76.69-2.14,1.8-3.11,2.49a21.26,21.26,0,0,0,8.93,2.15c6.65,0,11.57-3.67,13.44-7.34,2-4,1.85-11-3.34-16.84ZM881,198.46a3.89,3.89,0,0,0-.42-7.76h-.14a3.87,3.87,0,0,0-3.74,4h0a3.91,3.91,0,0,0,1.11,2.56c-2.36,4.65-6,8-11.36,10.88a18.74,18.74,0,0,1-11.3,2.15,9.64,9.64,0,0,1-7.06-4.09,10.16,10.16,0,0,1-.56-10.74,16.45,16.45,0,0,1,4.71-5.54c-.27-.9-.69-2.43-.9-3.54-10,7.28-9,17.12-6,21.76,2.28,3.47,6.92,5.61,12,5.61a17.14,17.14,0,0,0,4.16-.48A26.63,26.63,0,0,0,881,198.46Z" transform="translate(-9.46 -7.42)"/><path class="cls-6" d="M890.56,276.94l2.48-6.28h7.17l-3.4-9.53,4.26-10.77,12.19,32.38h-9l-2.08-5.8Z" transform="translate(-9.46 -7.42)"/><path class="cls-7" d="M882.88,282.74l13.06-32.38h-8.66l-8.93,20.93L872,250.36h-6.65l-6.82,20.93-4.81-9.54-4.35,13.41,4.42,7.58h8.52L868.47,264l5.87,18.76Z" transform="translate(-9.46 -7.42)"/><path class="cls-6" d="M842.54,257.81a4.24,4.24,0,0,1,1.15,3.12,4.55,4.55,0,0,1-1,3.13c-.75.86-2.12,1.28-4.12,1.28h-3.08v-8.7h3.1C840.45,256.64,841.76,257,842.54,257.81Zm-7.06,13.82h5.33a15.68,15.68,0,0,0,4.31-.54l1.38-4.25L850.36,255a9.16,9.16,0,0,0-1-1.32c-2-2.19-4.89-3.28-8.68-3.29H827.26v32.38h8.22Z" transform="translate(-9.46 -7.42)"/><path class="cls-8" d="M720.25,67.26a5.44,5.44,0,1,0,5.52,5.44A5.44,5.44,0,0,0,720.25,67.26Zm0,0a5.44,5.44,0,1,0,5.52,5.44A5.44,5.44,0,0,0,720.25,67.26Zm0,0a5.44,5.44,0,1,0,5.52,5.44A5.44,5.44,0,0,0,720.25,67.26Zm0,0a5.44,5.44,0,1,0,5.52,5.44A5.44,5.44,0,0,0,720.25,67.26Zm0,0a5.44,5.44,0,1,0,5.52,5.44A5.44,5.44,0,0,0,720.25,67.26Zm0,0a5.44,5.44,0,1,0,5.52,5.44A5.44,5.44,0,0,0,720.25,67.26Zm0,0a5.44,5.44,0,1,0,5.52,5.44A5.44,5.44,0,0,0,720.25,67.26Zm0,0a5.44,5.44,0,1,0,5.52,5.44A5.44,5.44,0,0,0,720.25,67.26Zm20.18-4c-.74-.25-1.5-.48-2.29-.7.17-.69.33-1.36.46-2,1.35-6.83.4-12.29-2.82-14.12s-9,.14-14.53,5l-1,.93c-.51-.48-1-.95-1.53-1.39-5.36-4.6-10.67-6.47-13.85-4.6S700.52,54.09,702,61.3c.09.43.19.88.3,1.33-.68.2-1.34.4-2,.62-6.68,2.27-11,5.81-11,9.48,0,3.83,4.61,7.57,11.69,9.88l1.15.35c-.14.56-.26,1.1-.37,1.63-1.4,7-.32,12.69,3,14.58s8.4,0,13.65-4.42c.55-.47,1.11-1,1.67-1.51.43.42.86.81,1.29,1.18,5.42,4.67,11,6.61,14.3,4.72s4.22-7.15,2.93-13.86c-.13-.71-.3-1.44-.48-2.18.57-.16,1.13-.33,1.67-.51,6.81-2.3,11.29-6.08,11.29-9.86s-4.15-7.21-10.69-9.46Zm-17.38-9.88c4.82-4.22,9.39-5.9,11.46-4.72s2.71,5.52,1.55,11.37c-.13.61-.27,1.24-.43,1.87a67.46,67.46,0,0,0-8.24-1.26,62.87,62.87,0,0,0-5.34-6.4C722.38,54,722.71,53.66,723.05,53.38ZM709.34,79c.63,1.06,1.26,2.09,1.9,3.1a52.17,52.17,0,0,1-5.76-1,57,57,0,0,1,2.07-5.36C708.12,76.8,708.71,77.88,709.34,79Zm-3.74-14.5a56.71,56.71,0,0,1,5.63-1c-.64,1-1.26,2-1.88,3.05s-1.21,2.12-1.77,3.16A53.65,53.65,0,0,1,705.6,64.46ZM709,72.73q1.2-2.42,2.66-4.89c1-1.63,2-3.2,3-4.69,1.83-.13,3.72-.21,5.63-.21s3.79.07,5.63.21c1,1.5,2,3.06,3,4.7s1.83,3.28,2.63,4.91c-.8,1.64-1.68,3.27-2.63,4.91s-2,3.22-3,4.72c-1.8.12-3.68.18-5.6.18s-3.82-.07-5.66-.2q-1.5-2.25-3-4.71C710.67,76,709.78,74.38,709,72.73ZM731.15,79c.61-1,1.2-2.09,1.75-3.15a54.27,54.27,0,0,1,2,5.38,54.74,54.74,0,0,1-5.69.9C729.88,81.08,730.52,80,731.15,79Zm0-12.42c-.61-1-1.24-2.07-1.89-3.07,2,.25,3.84.56,5.6,1a49.35,49.35,0,0,1-2,5.27c-.54-1-1.11-2.1-1.7-3.15ZM720.22,56.1a55.54,55.54,0,0,1,3.67,4.28c-1.2-.05-2.42-.08-3.64-.08s-2.45,0-3.66.09C717.79,58.85,719.05,57.38,720.22,56.1Zm-14-7.5c1.94-1.1,6.2.44,10.76,4.35.47.41,1,.84,1.42,1.29a62,62,0,0,0-5.22,6.42A63.91,63.91,0,0,0,704.92,62c-.1-.41-.2-.81-.28-1.21-1.33-6.22-.52-11,1.55-12.14ZM703,80.43l-1-.32c-6.11-2-9.88-5-9.88-7.41s3.49-5.08,9.2-7c.6-.2,1.21-.39,1.84-.57a61.21,61.21,0,0,0,3,7.6,59.45,59.45,0,0,0-3.19,7.7Zm13.8,12.31c-4.49,3.81-8.66,5.26-10.61,4.15-.91-.52-1.65-1.83-2-3.78a21.53,21.53,0,0,1,.3-8c.1-.48.21-1,.33-1.48a63.83,63.83,0,0,0,8.37,1.28,61.75,61.75,0,0,0,5.16,6.47C717.78,91.84,717.26,92.31,716.75,92.74Zm3.4-3.25c-1.21-1.34-2.42-2.8-3.63-4.4,1.23,0,2.47.08,3.73.08s2.43,0,3.62-.07c-1.22,1.58-2.47,3.05-3.72,4.39Zm14.26,7.37c-.91.52-2.43.5-4.33-.16a22.69,22.69,0,0,1-6.92-4.27c-.39-.34-.78-.7-1.17-1.07a65.44,65.44,0,0,0,5.3-6.46,63.29,63.29,0,0,0,8.33-1.19c.17.69.32,1.37.45,2,1.1,5.76.29,10-1.66,11.15ZM746.2,76.32A22.43,22.43,0,0,1,739,80.1c-.49.16-1,.32-1.52.47a62,62,0,0,0-3-7.81,62.46,62.46,0,0,0,3-7.69q1.11.3,2.13.66c5.59,1.92,9,4.75,9,7A6,6,0,0,1,746.2,76.32Zm-26,1.82a5.44,5.44,0,1,0-5.52-5.44,5.45,5.45,0,0,0,5.52,5.44Zm0-10.88a5.44,5.44,0,1,0,5.52,5.44A5.44,5.44,0,0,0,720.25,67.26Zm0,0a5.44,5.44,0,1,0,5.52,5.44A5.44,5.44,0,0,0,720.25,67.26Zm0,0a5.44,5.44,0,1,0,5.52,5.44A5.44,5.44,0,0,0,720.25,67.26Zm0,0a5.44,5.44,0,1,0,5.52,5.44A5.44,5.44,0,0,0,720.25,67.26Zm0,0a5.44,5.44,0,1,0,5.52,5.44A5.44,5.44,0,0,0,720.25,67.26Zm0,0a5.44,5.44,0,1,0,5.52,5.44A5.44,5.44,0,0,0,720.25,67.26Zm0,0a5.44,5.44,0,1,0,5.52,5.44A5.44,5.44,0,0,0,720.25,67.26Zm0,0a5.44,5.44,0,1,0,5.52,5.44A5.44,5.44,0,0,0,720.25,67.26Z" transform="translate(-9.46 -7.42)"/><path class="cls-9" d="M720.25,67.26a5.44,5.44,0,1,0,5.52,5.44A5.44,5.44,0,0,0,720.25,67.26Z" transform="translate(-9.46 -7.42)"/><path class="cls-8" d="M725.77,72.7a5.52,5.52,0,1,1-5.6-5.44h.08a5.48,5.48,0,0,1,5.52,5.44Z" transform="translate(-9.46 -7.42)"/><path class="cls-10" d="M896.34,36.24a22,22,0,1,0,22,22,22,22,0,0,0-22-22ZM879.08,58.47l17,17A17.26,17.26,0,0,1,879.08,58.47Zm21.14,16.61L879.51,54.37a17.28,17.28,0,0,1,30.81-6.3l-2.39,2.11a14.11,14.11,0,0,0-24.85,3.26L901.15,71.5A14.12,14.12,0,0,0,910,61.63h-7.49V58.24h11.07a17.28,17.28,0,0,1-13.41,16.84Z" transform="translate(-9.46 -7.42)"/><path class="cls-11" d="M103.56,68.76v-.37a1,1,0,0,0,0-.25h-.44a14.37,14.37,0,0,1-3-.2,11.41,11.41,0,0,1-2.72-.78A9.62,9.62,0,0,1,94,64.64a3,3,0,0,1-.68-1.53,2.19,2.19,0,0,1,.29-1.39,2.35,2.35,0,0,1,1.1-.94,4,4,0,0,1,2.43-.14c1.33.27,2.17.45,2.7.58A48.44,48.44,0,0,1,94.63,49.4c-1.43-5.14-1.45-9.61.1-11.57a14.39,14.39,0,0,1,8.1-5.12,21.15,21.15,0,0,1,10,.42c.49-.09,1-.16,1.52-.22.74-.07,1.47-.12,2.21-.13a13.34,13.34,0,0,1,3.93.51,10.92,10.92,0,0,1,2.42,1c4.37-1.41,20.23-5.58,19.37,11.86A67.43,67.43,0,0,1,138,62.56a18,18,0,0,1-2.94,5c-1.51,1.67-3.25,2.4-5.23,1.7a5.1,5.1,0,0,1-1.57-.89,1.54,1.54,0,0,1-.28.29,5.51,5.51,0,0,1-2.32,1.18,9.94,9.94,0,0,1-4.1.21,7.21,7.21,0,0,1-1.91-.56,6.17,6.17,0,0,1,0,.86v1.18a26.48,26.48,0,0,1-.22,3.12,11.29,11.29,0,0,1-.58,2.77,1.05,1.05,0,0,1-.11.31c-.63,2-1.81,5.48-7.31,4.31-2.14-.45-4-1-5.57-3.19-1.33-1.87-2.18-4.86-2.31-10.08Z" transform="translate(-9.46 -7.42)"/><path class="cls-4" d="M105.77,65.07c.14-2.66-1.19-3.12-2.11-3.39.1-.14.23-.31.38-.49a8.94,8.94,0,0,0,1.55-2.47c.07-.17.29-.56.58-1.07,1.22-2.16,3.61-6.38,3.11-9.38-.33-2.07-1.93-3.45-5.93-3v-.12a14.64,14.64,0,0,1,1-2,14.18,14.18,0,0,1,12.29-7.64c8.16-.13,9.65,7.9,9.92,11.28a9,9,0,0,0-1.24-.62,10.8,10.8,0,0,0-2.24-.63,5.54,5.54,0,0,0-2.36.12,3.54,3.54,0,0,0-2.39,2.79c-1.26,5.78-.13,8.27.76,10.21a14,14,0,0,1,.78,1.94c.15.41.27.8.37,1.15h-.3a2.71,2.71,0,0,0-1.58.47,3.24,3.24,0,0,0-1,1.42,4.34,4.34,0,0,0-.15,1.6c0,2.6,0,5.16-.06,7.25a18,18,0,0,1-.5,4.21,5.07,5.07,0,0,1-1.38,2.12,4,4,0,0,1-3.59.6,6.16,6.16,0,0,1-3.28-1.51,5.69,5.69,0,0,1-1.32-3.1c-.17-1-.42-2.8-.63-4.55-.28-2.15-.52-4.37-.59-5.14Zm19.15,1.27c-2.69-.55-3-.89-3.82-2a10.54,10.54,0,0,0-1-1.12.51.51,0,0,0-.31-.15,1.21,1.21,0,0,0-.63.21,1.61,1.61,0,0,0-.54.75,1.1,1.1,0,0,0,.06,1,4.85,4.85,0,0,0,1.47,1.42,4.91,4.91,0,0,0,1.91.74A7.11,7.11,0,0,0,125,67a2.83,2.83,0,0,0,.94-.41,4.79,4.79,0,0,0-1-.29Zm.78-5.06c.22-.19.43-.38.63-.59a7.18,7.18,0,0,0,1.86-4.19,7.65,7.65,0,0,0,0-1.79,28.44,28.44,0,0,1-.14-5.76,4.09,4.09,0,0,0,0-.7c0-.06.2-7.37-4-11.46,3.8-1.25,16.08-4.2,15.4,9.15a63,63,0,0,1-4,15.46A15.48,15.48,0,0,1,133,65.6c-.73.8-1.47,1.19-2.19.94a3.07,3.07,0,0,1-1.26-1c-1.6-1.91-3.1-3.53-3.79-4.26Zm-15-25.94a16.47,16.47,0,0,0-7.59,7.12,15.34,15.34,0,0,0-1,2.23,3.48,3.48,0,0,0-.29,1.45v.07a13.19,13.19,0,0,0,.23,2.67,17.59,17.59,0,0,1,.23,2.16,16.09,16.09,0,0,1-.18,2.41c-.27,2.14-.54,4.43.91,6.78l-.07.09a.91.91,0,0,1-.18.21,45,45,0,0,1-5.38-12c-1.22-4.32-1.4-7.85-.41-9.12a11.67,11.67,0,0,1,5.93-4,17.13,17.13,0,0,1,7.8-.15Zm15.92,12.93v.62a30.07,30.07,0,0,0,.15,6,6,6,0,0,1,0,1.47,5.68,5.68,0,0,1-1.49,3.37,5.06,5.06,0,0,1-3,1.65h-.63a12.87,12.87,0,0,0-.43-1.33,18.19,18.19,0,0,0-.81-2c-.8-1.77-1.82-4-.65-9.36a2.2,2.2,0,0,1,1.46-1.78,4,4,0,0,1,1.73-.07,8.88,8.88,0,0,1,1.91.54c.63.24,1.24.51,1.83.8Zm-4.19-.58a2.93,2.93,0,0,0-1.7.23.89.89,0,0,0-.28.23.76.76,0,0,0-.11.35,1.14,1.14,0,0,0,.46.59,1.33,1.33,0,0,0,1,.23,1.57,1.57,0,0,0,.88-.48.93.93,0,0,0,.33-.68c0-.21-.17-.38-.53-.47Zm-19.21-1c3.23-.4,4.48.48,4.7,1.84.4,2.44-1.84,6.42-3,8.45-.23.39-.45.8-.64,1.21a4.11,4.11,0,0,1-.37.76,9.32,9.32,0,0,1-.42-5.33,17.57,17.57,0,0,0,.19-2.62,16.64,16.64,0,0,0-.26-2.32,13.29,13.29,0,0,1-.21-2Zm-.4,16.2.35.11c.49.14,1.26.35,1.19,2a1.27,1.27,0,0,1-.6.18,7.22,7.22,0,0,1-1.86.1,10.07,10.07,0,0,1-3.37-.72,7.86,7.86,0,0,1-2-1.29C98.36,63.62,101.15,64.14,102.82,62.89Zm1.72-15.23a.88.88,0,0,0,.29.6,1.48,1.48,0,0,0,.84.45,1.22,1.22,0,0,0,.73-.15c.29-.16.51-.38.51-.6a.5.5,0,0,0-.31-.43,2.59,2.59,0,0,0-.79-.24,2.26,2.26,0,0,0-.82,0c-.26.06-.42.18-.44.35ZM102,61.9c-.32.31-1.43.78-5.13,0a2.73,2.73,0,0,0-1.55,0,1.13,1.13,0,0,0-.45.39,1,1,0,0,0-.13.58,1.62,1.62,0,0,0,.34.83,8.16,8.16,0,0,0,2.89,2.08,11.53,11.53,0,0,0,3.88.84,9.09,9.09,0,0,0,2.21-.11,1.66,1.66,0,0,0,.45-.12c.11,1,.29,2.47.47,3.93.23,1.82.48,3.63.65,4.62a7.08,7.08,0,0,0,1.7,3.83,7.42,7.42,0,0,0,4,1.91,5.36,5.36,0,0,0,4.8-.89,6.24,6.24,0,0,0,1.77-2.69,18.28,18.28,0,0,0,.61-4.66c.07-1.61.1-3.5.08-5.48a6.38,6.38,0,0,0,3.25,1.56,8.7,8.7,0,0,0,3.52-.18,4.54,4.54,0,0,0,1.7-.85,1.29,1.29,0,0,0,.45-.8,1.08,1.08,0,0,0-.06-.56,1.12,1.12,0,0,0-.33-.45,3.94,3.94,0,0,0-1.89-.77c-2.17-.45-2.37-.69-3-1.47a6.69,6.69,0,0,0-.5-.58v-.1a2.72,2.72,0,0,0,.7-.06,5.78,5.78,0,0,0,2.1-.69c.59.63,2.17,2.31,3.89,4.37a4.49,4.49,0,0,0,1.89,1.48c1.35.47,2.59-.08,3.71-1.31a16.48,16.48,0,0,0,2.69-4.6A66,66,0,0,0,140.82,46c.83-16.53-15.49-11.21-18.09-10.25a10.32,10.32,0,0,0-6.12-1.65,15.71,15.71,0,0,0-3.48.43c-.52-.14-1.25-.34-1.28-.36l-.36-.08a18.64,18.64,0,0,0-9,.07,12.85,12.85,0,0,0-6.64,4.45C94.59,40.27,94.69,44.27,96,49a46.71,46.71,0,0,0,6,13Z" transform="translate(-9.46 -7.42)"/><path d="M33.46,221.58V206.21h.83v2.42a2.88,2.88,0,0,0,.27-.34A4.15,4.15,0,0,1,38.33,206a4.43,4.43,0,0,1,4.35,2.34,7.47,7.47,0,0,1,.18,6.88,4.67,4.67,0,0,1-5.17,2.5,4.23,4.23,0,0,1-1.94-.68,4.06,4.06,0,0,1-1.39-1.52v6.11Zm.83-9.93.19,1.8a3.8,3.8,0,0,0,3.45,3.5,4,4,0,0,0,2.6-.48,3.92,3.92,0,0,0,1.7-2,6.66,6.66,0,0,0-.15-5.49,3.81,3.81,0,0,0-4-2.23,3.75,3.75,0,0,0-3.34,2.76,19.59,19.59,0,0,0-.41,2.16Zm26.33,2.09a4.5,4.5,0,0,1-4.39,4c-3.49.17-5.13-2.15-5.4-4.83a7.69,7.69,0,0,1,.69-4.25A4.73,4.73,0,0,1,56.46,206a4.51,4.51,0,0,1,4,3.45,24.75,24.75,0,0,1,.4,2.56H51.68c-.17,2.43,1.13,4.38,3,4.85a3.93,3.93,0,0,0,5-2.5.56.56,0,0,0,0-.12c.16-.57.45-.64,1-.49Zm-8.93-2.52H59.9c0-2.59-1.66-4.47-3.85-4.49-2.46,0-4.26,1.76-4.36,4.48Zm10.63,2.58h.8a3.24,3.24,0,0,0,1.9,2.78,4.89,4.89,0,0,0,2.16.44,5,5,0,0,0,2.14-.55,1.89,1.89,0,0,0,1.13-1.9,1.8,1.8,0,0,0-.29-1.08,1.88,1.88,0,0,0-.89-.68c-.88-.32-1.82-.51-2.72-.8a19.23,19.23,0,0,1-2.75-1c-1.46-.71-1.55-3.47.1-4.35a5.82,5.82,0,0,1,5.54-.08,2.9,2.9,0,0,1,1.47,3h-.69s-.06-.06-.06-.09c-.08-2.2-1.93-2.89-3.92-2.7a5.08,5.08,0,0,0-1.7.52,1.72,1.72,0,0,0-.77.69,2,2,0,0,0,.09,2,1.83,1.83,0,0,0,.83.62c.86.32,1.78.52,2.68.77l2.17.57a2.56,2.56,0,0,1,1.24.88,2.65,2.65,0,0,1,.52,1.43,2.73,2.73,0,0,1-1.47,2.83c-1.9,1.07-5,.79-6.41-.57a3.76,3.76,0,0,1-1.1-2.69Zm19.18-4.25h-.71a2.74,2.74,0,0,0-.05-.28,2.49,2.49,0,0,0-2-2.37,5,5,0,0,0-3.18.16,1.88,1.88,0,0,0-1,.68,2,2,0,0,0-.39,1.16,1.77,1.77,0,0,0,1.36,1.79l3.45.89a10.68,10.68,0,0,1,1.1.33A2.85,2.85,0,0,1,82,214.5a2.81,2.81,0,0,1-1.74,2.7,6.35,6.35,0,0,1-2.54.56,6.43,6.43,0,0,1-2.56-.51,3.46,3.46,0,0,1-1.61-1.39,3.6,3.6,0,0,1-.53-2.05h.74A4.13,4.13,0,0,0,78.6,217a4.32,4.32,0,0,0,1.42-.59,2,2,0,0,0,1.09-1.89,1.75,1.75,0,0,0-.31-1.08,1.86,1.86,0,0,0-.89-.67c-.88-.32-1.82-.5-2.73-.8a19.35,19.35,0,0,1-2.76-1c-1.42-.7-1.53-3.44.08-4.31a5.73,5.73,0,0,1,5.63-.06,2.87,2.87,0,0,1,1.15,1.24,3,3,0,0,1,.28,1.67Zm-49.41,7.89a1.35,1.35,0,0,1-.93,0,1.37,1.37,0,0,1-.69-.61l-2.93-4.09-.42-.57-3.41,4.63a1.25,1.25,0,0,1-.65.59,1.21,1.21,0,0,1-.88,0l4.38-5.88-4.08-5.32a1.36,1.36,0,0,1,1.62.57l3,4.11,3.06-4.09a1.21,1.21,0,0,1,1.52-.57l-1.58,2.1L28,211.1a.85.85,0,0,0-.14.19.88.88,0,0,0,0,.23,1,1,0,0,0,0,.24A.67.67,0,0,0,28,212L32,217.4Zm18.62-11.26v.8a4.06,4.06,0,0,0-1.69.24,4.23,4.23,0,0,0-1.45.91,4.14,4.14,0,0,0-1.24,3.1v6.24h-.82V206.22h.8v2.3a4.79,4.79,0,0,1,4.4-2.35Zm-39,5.3.36-1.77A4.92,4.92,0,0,1,18,206.07a5.05,5.05,0,0,1,1.8.85c1.61,1.27,2,3.06,1.93,5.08H12.63c-.15,3.61,2.45,5.79,5.78,4.67a3.44,3.44,0,0,0,2.2-2.44c.17-.57.46-.67,1-.5a4.66,4.66,0,0,1-.72,1.94,4.47,4.47,0,0,1-1.48,1.42,5.36,5.36,0,0,1-6.22-.79,5.56,5.56,0,0,1-1.4-3.28,1.87,1.87,0,0,0-.12-.57v-1Zm1-.25h8.21c0-2.61-1.71-4.47-3.91-4.49-2.45,0-4.2,1.79-4.31,4.48Z" transform="translate(-9.46 -7.42)"/><g class="cls-12"><path class="cls-13" d="M87.13,140.15H80.87l10-25.94h6.92l10,25.94h-6.27l-1.64-4.4H90.43l1.71-4.86h6.22l-4-11.16ZM66.49,120.94a1.51,1.51,0,0,1,2.9.81,26.06,26.06,0,1,0,8.46-13,3.62,3.62,0,1,1-4.73-2,3.49,3.49,0,0,1,1.39-.28,3.77,3.77,0,0,1,1.1.17A29,29,0,1,1,66.49,121Z" transform="translate(-9.46 -7.42)"/></g><g class="cls-14"><path class="cls-15" d="M68.81,296.17,82.24,304a6.47,6.47,0,0,1,1.32-1.06,5.77,5.77,0,0,1,7.89,2.11l0,.05a5.93,5.93,0,0,1-2.13,8,5.41,5.41,0,0,1-1.54.62v15.66a6.14,6.14,0,0,1,1.53.62,5.91,5.91,0,0,1,2.13,8,5.78,5.78,0,0,1-7.88,2.19l-.06,0A5.64,5.64,0,0,1,82.1,339l-13.32,7.78a5.81,5.81,0,1,1-11.32,1.86h0a5.51,5.51,0,0,1,.24-1.66l-13.46-7.76a5.93,5.93,0,0,1-1.3,1,5.77,5.77,0,0,1-7.9-2.07.59.59,0,0,1,0-.08,5.91,5.91,0,0,1,2.13-8,5.85,5.85,0,0,1,1.53-.62V313.75a5.41,5.41,0,0,1-1.54-.62,5.91,5.91,0,0,1-2.13-8,5.77,5.77,0,0,1,7.87-2.19l.06,0a6.85,6.85,0,0,1,1.32,1l13.4-7.83a5.13,5.13,0,0,1-.24-1.66,5.81,5.81,0,1,1,11.62,0h0A6.65,6.65,0,0,1,68.81,296.17Zm-1.4,2.45,13.43,7.85A5.9,5.9,0,0,0,81.4,311,5.72,5.72,0,0,0,85,313.78v15.64l-.22.06L67.24,298.74Zm-8.18.17L41.68,329.48l-.22-.06V313.74A5.78,5.78,0,0,0,45.08,311a5.93,5.93,0,0,0,.55-4.55l13.43-7.8Zm5.63,1.39L82.4,330.9a6,6,0,0,0-1,1.32,5.56,5.56,0,0,0-.61,1.55H45.71a6.25,6.25,0,0,0-.61-1.55,6.4,6.4,0,0,0-1-1.31l17.54-30.73a5.76,5.76,0,0,0,3.24,0Zm2.68,44.57L80.88,337a1.82,1.82,0,0,0-.11-.38H45.71l-.06.22,13.41,7.83a5.75,5.75,0,0,1,8.14-.22l.34.34Z" transform="translate(-9.46 -7.42)"/></g><g id="mine"><g class="cls-16"><g id="Mine-2" data-name="Mine"><g class="cls-17"><path class="cls-18" d="M871,493.39V23.08H90V493.39Z" transform="translate(-9.46 -7.42)"/></g></g></g></g><polygon class="cls-19" points="570.11 488.52 570.11 488.52 570.11 488.52 570.11 488.52 570.11 488.52"/><path class="cls-20" d="M206,337l-13,13.3-5.4-7.93-1.8-2.66c-5.75,1.45-14.24-9.81-17.65-15.81s10.21-15.31,10.21-15.31c-2.22-6.66-11.13-10.84-11.38-12.68s2-3.79,10.06,0,15.17,17.26,15.17,17.26c1.44-3.92-5-14.5-3.79-15.69s7.45.27,12.28,10.46,2,22.23,2,22.23l.06.11Z" transform="translate(-9.46 -7.42)"/><path class="cls-21" d="M177.92,307.41s9.6,11,8.57,15.31-5.87-.7-5.87-.7,4.44,5.14,3,6.84-6.8-2.61-6.8-2.61,6.41,8,0,6.8-14.45-13.26-8.27-14.48c0,0-.75-8.8,4.87-5.79C173.42,312.78,170.91,305.45,177.92,307.41Z" transform="translate(-9.46 -7.42)"/><path class="cls-22" d="M294.64,466.55s10.82-31.59,5.13-62.74a.74.74,0,0,1,0-.21,1,1,0,0,0,0-.25c-.17-.82-.33-1.63-.5-2.45a132,132,0,0,1-14.94,10.92c-10.39,6.55-24.26,13.06-34.91,10-19.54-5.58-48.12-43.57-61.38-73.57a34.79,34.79,0,0,1,19.87-13s26.51,35.31,49.88,43.68A172.32,172.32,0,0,0,280,342c6.23-14,15.58-22.88,27.38-27.65A63.93,63.93,0,0,1,329.7,310l20.48-9.56a75.32,75.32,0,0,1,8.49.69c9.61,1.26,25.57,4.77,38.47,14.61C417,330.8,445.62,466.55,445.62,466.55Z" transform="translate(-9.46 -7.42)"/><path class="cls-23" d="M299.72,403.6c-.16-.9-.35-1.8-.54-2.7a132,132,0,0,1-14.94,10.92l6.05-51.71C296.44,383.79,299.39,401.49,299.72,403.6Z" transform="translate(-9.46 -7.42)"/><path class="cls-24" d="M358.67,301.05c-3.15,20.09-23.26,38.64-37.78,38.39-11.67-.21-13.38-16.94-13.51-25.12a63.93,63.93,0,0,1,22.32-4.4l20.48-9.56A75.32,75.32,0,0,1,358.67,301.05Z" transform="translate(-9.46 -7.42)"/><path class="cls-23" d="M323.92,446s46.12-48,48.13-98.46l13.6,42.53-5.23,44.29Z" transform="translate(-9.46 -7.42)"/><path class="cls-20" d="M322.58,466.54H270.94s.13-7.06,8.1-9.42,13.08-12.29,37-11Z" transform="translate(-9.46 -7.42)"/><path class="cls-25" d="M375.42,419.07s-24.33,14-62.64,23.93c0,0-5.32,12.82,4,23.54H390.9Z" transform="translate(-9.46 -7.42)"/><path class="cls-20" d="M350.18,300.36s-12.82,31.11-26.29,28.77c-6.7-1.17-8.18-5.25-8.25-10-.06-6.17,2.35-13.41-1.29-16.44l16.15-22.95,3.55-5.06S338.4,287.29,350.18,300.36Z" transform="translate(-9.46 -7.42)"/><path class="cls-26" d="M315.64,319.15c-.06-6.17,2.35-13.41-1.29-16.44l16.15-22.95c1.38,1.61,2.36,4.48,2.76,9C335.39,312.43,322.86,317.94,315.64,319.15Z" transform="translate(-9.46 -7.42)"/><path class="cls-20" d="M280.76,247.18s1.43,38.82,13,55.86c2,3,8,7.75,10.39,9.09,14.22,7.84,31.3-18.61,31-30.34,0,0,6.2-4.73,5.16-12.39s-9.13-5.11-10.1,7.22c0,0-4-19.22-5.22-34.64-4.13,3.42-14.8,12-19.49,7.79,0,0,1.31,17.75-10.65,7.72C294.79,257.49,287.78,250.5,280.76,247.18Z" transform="translate(-9.46 -7.42)"/><path class="cls-27" d="M668.93,415.55s21.1,35.21,28.42,52.29H622.92a305.74,305.74,0,0,0-11.69-40.36Z" transform="translate(-9.46 -7.42)"/><path class="cls-26" d="M639.9,423.39c-4.07,13.5-10.28,25-19.49,33.77l2.51,10.68-90-1.11,10-61.64Z" transform="translate(-9.46 -7.42)"/><path class="cls-26" d="M781.18,231.21s3-18.67,8.91-25.29,22.14-16.43,24.06-12.94-14.3,14.42-14.3,14.42,7.32-1.75,13.6,9.06-14,19.18-14,19.18l-4,9.06-16-10.11Z" transform="translate(-9.46 -7.42)"/><path class="cls-20" d="M801.92,207.75s-9,9.19-7.72,11.82,6.31-1.5,6.31-1.5-4.07,6.19-.92,7.78,8-3.75,8-3.75-4.06,5.63-1.73,6.66,14.84-7.79,12.61-9.85-3.46-.37-3.46-.37,2.62-4.41,0-5.82a3,3,0,0,0-4.13,1,2,2,0,0,0-.14.25s2.14-3.38.41-4.69-5.39.38-5.39.38S807,204,801.92,207.75Z" transform="translate(-9.46 -7.42)"/><path class="cls-20" d="M793.53,207.53c-2.74-.79-8.32,4.92-8.32,4.92-2.2,2.83-2.65,8.45-2.73,11.05-.29,7.24-3,11.09-3,11.09l8.14,5.13c6.31-8.11,4.24-18.51,3.23-22.19C793.89,212.94,795.17,208,793.53,207.53Z" transform="translate(-9.46 -7.42)"/><path class="cls-22" d="M798.8,246.62s-27.2,72.43-70.42,78.85c-19.33,2.86-33.93,3.16-44.14,2.61-12.17-.63-18.16-2.47-18.59-2.59h0s-11.86,22.09-4.18,53.82,10.46,38.35,10.46,38.35-58.26,42.84-105.64,3.83L523.5,355l-13.39-20.83s12.3-40.4,47-66.65h0a106.09,106.09,0,0,1,49.32-20.75,125.73,125.73,0,0,1,33.73-.32s9.41,2.66,24.72,8.27c8.24,3,18.2,6.88,29.31,11.65C725.93,280,734.65,284,734.65,284s33.8-33.34,42.53-53.57C777.19,230.41,794.61,232.17,798.8,246.62Z" transform="translate(-9.46 -7.42)"/><path class="cls-23" d="M580.61,279.69c-.15,16.23-3.62,32-5.15,44.17l26.87-5.44,41.82,41.34s5.3,12.12-5.49,14.21c-8.45,1.64-47.94,7.13-47.94,7.13-9.11,12.39-13.22,31.34-17.76,49.73l-40.09-69.67Z" transform="translate(-9.46 -7.42)"/><path class="cls-24" d="M640.17,283.59c-18.73-4.75-28.58-21.59-33.73-36.86a125.73,125.73,0,0,1,33.73-.32s9.41,2.66,24.72,8.27C666.69,268,666,290.13,640.17,283.59Z" transform="translate(-9.46 -7.42)"/><path class="cls-23" d="M689.33,298.4a207.43,207.43,0,0,0-5.09,29.68c-12.17-.63-18.16-2.47-18.59-2.59h0S676.25,307.29,689.33,298.4Z" transform="translate(-9.46 -7.42)"/><rect class="cls-28" x="587.61" y="293.54" width="52.24" height="76.88" rx="1.95" transform="translate(-50.79 84.2) rotate(-8.26)"/><path class="cls-20" d="M608.61,321.41l7.15-2.79s6.8-18.83,15.25-7c0,0,5.84-3.49,5.67-5.41s-.26-4.7-.26-4.7,11.83,2.55,9.18,19.06S632.84,335,622.91,335.18l-12.38,4.88Z" transform="translate(-9.46 -7.42)"/><path class="cls-29" d="M613.22,344.42s-55.69,36.86-79.74,19.08a97.79,97.79,0,0,1-10-8.52l-13.39-20.83s12.3-40.4,47-66.65h0c11.49-5.17,23.51-3.29,24.12,7.36,1.47,25.38-20.23,41-22.91,52.49l49.91-10.1S616.36,325.84,613.22,344.42Z" transform="translate(-9.46 -7.42)"/><path class="cls-20" d="M619.75,247.57s12.31,30.34,31.66,25.38c6.58-1.69,6.62-8.77,5.79-13.42-1.1-6.07-4.82-12.73-1.81-16.39l-20.18-19.51-4.45-4.3S628.86,232.52,619.75,247.57Z" transform="translate(-9.46 -7.42)"/><path class="cls-26" d="M657.2,259.53c-1.1-6.07-4.82-12.73-1.81-16.39l-20.18-19.51c-1.05,1.85-1.48,4.85-1,9.34C636.54,256.65,649.89,259.69,657.2,259.53Z" transform="translate(-9.46 -7.42)"/><path class="cls-20" d="M678,195.64s3.58,15.24,1.64,29.45c-1.32,9.72-6.19,18.87-12.76,22.66-8,4.62-18.42,3.32-22.84-3.13-4.78-7-12-12.6-12.92-18.13,0,0-7-3.48-7.39-11.19s8-6.75,11.27,5.19c0,0,2.18-7.3.47-22.68,4.71,2.58,13.09,6.32,16.91,1.35,0,0,3.9,8,13.76-4.11C666.09,195.05,671.68,200.22,678,195.64Z" transform="translate(-9.46 -7.42)"/><path class="cls-30" d="M575.8,444.33h0a27.68,27.68,0,0,1-2.58,6.76c-10.1,18.47-53.86,15.44-53.86,15.44H419.47c-41.34,0-57.91-1-61.86-13.93a18.62,18.62,0,0,1-.55-2.2c-2.8-15,11.15-63.81,36.95-97.28,13.2-17.11,26.84-26.12,39-30.83a78.37,78.37,0,0,1,29.06-5.08c12.67,0,22.9.94,31.59,3,23.3,5.46,35.5,18.63,53.78,42C569.79,390.76,580.8,424.29,575.8,444.33Z" transform="translate(-9.46 -7.42)"/><path class="cls-31" d="M400.11,432.48c10.84-17.05,14.25-40.7,17.26-64.7l9.42,48.81h81.58l15-48.81C523,390.59,526.14,413,537,434.37,537,434.37,483.62,494.74,400.11,432.48Z" transform="translate(-9.46 -7.42)"/><path class="cls-32" d="M424.88,466.55h-5.41c-41.34,0-57.91-1-61.86-13.93-2.16-10.15.58-20.82,12.95-24,19.37-5,53.09,14.64,53.09,14.64Z" transform="translate(-9.46 -7.42)"/><path class="cls-32" d="M575.8,444.33h0a27.68,27.68,0,0,1-2.58,6.76c-10.1,18.47-53.86,15.44-53.86,15.44H489.71l3.77-25.11S546,417.1,564.86,424.69C574.06,428.41,576.88,436.11,575.8,444.33Z" transform="translate(-9.46 -7.42)"/><path class="cls-9" d="M515.17,466.54h-95.7a4.21,4.21,0,0,1-4.19-4.19h0a4.19,4.19,0,0,1,4.19-4.18h95.7a4.19,4.19,0,0,1,4.19,4.18h0A4.21,4.21,0,0,1,515.17,466.54Z" transform="translate(-9.46 -7.42)"/><path class="cls-33" d="M526.76,394.58l-.35,2.18h0l-9.92,61.4H418.94l-9.81-63.64a5.16,5.16,0,0,1,4.34-5.88,4.74,4.74,0,0,1,.75-.06H521.68a5.16,5.16,0,0,1,5.15,5.15A4.88,4.88,0,0,1,526.76,394.58Z" transform="translate(-9.46 -7.42)"/><path class="cls-34" d="M526.41,396.78l-9.92,61.4h-97l32.88-3.43A88.45,88.45,0,0,0,526.41,396.78Z" transform="translate(-9.46 -7.42)"/><path class="cls-32" d="M493.65,320.2c-.88,11.73-5.74,33.11-29.37,33.11-24.92,0-30.19-21.06-31.28-31a78.37,78.37,0,0,1,29.06-5.08C474.73,317.23,485,318.17,493.65,320.2Z" transform="translate(-9.46 -7.42)"/><path class="cls-35" d="M463.88,344.42h-.65a22.89,22.89,0,0,1-9.41-1.9,17,17,0,0,1-9.73-15.92v-2c0-5.59-.34-10.23-.34-10.23v-2.51l35.15-1.57a80.73,80.73,0,0,0,1.4,13.16v.16a17.42,17.42,0,0,1-13.68,20.49A18,18,0,0,1,463.88,344.42Z" transform="translate(-9.46 -7.42)"/><path class="cls-36" d="M480.32,323.42c-14.64,17.19-29.68,7.15-36.21,1.15,0-5.59-.34-10.23-.34-10.23v-2.51l35.15-1.57A80.73,80.73,0,0,0,480.32,323.42Z" transform="translate(-9.46 -7.42)"/><path class="cls-35" d="M435,294.23s2.37,11.66,8.12,20.72c2.31,3.66,13,7.63,19.21,7.63,5.67,0,14.13-3.4,16.72-8.85,4.64-9.75,6.24-22.18,6.24-22.18l5.36-16.82-7-11L428,266.2Z" transform="translate(-9.46 -7.42)"/><path class="cls-35" d="M431.12,277.51s-4.77.92-4,6.68S433,297,437,293.27Z" transform="translate(-9.46 -7.42)"/><path class="cls-35" d="M489,275.1s4.85.22,4.79,6-4.09,13.47-8.58,10.4Z" transform="translate(-9.46 -7.42)"/><path class="cls-19" d="M514.13,310.26" transform="translate(-9.46 -7.42)"/><rect class="cls-37" x="143.23" y="459.12" width="696.44" height="13.6" rx="1.75"/><path class="cls-38" d="M560.83,431.7H588v25.82a7.66,7.66,0,0,1-7.65,7.65h-11.9a7.64,7.64,0,0,1-7.65-7.65h0V431.7Z" transform="translate(-9.46 -7.42)"/><path class="cls-39" d="M573.35,430.72v-5.29a3.15,3.15,0,0,1,3.14-3.14h.78a3.15,3.15,0,0,0,3.14-3.14h0v-.78a3.13,3.13,0,0,0-3.12-3.14h-7.86a11,11,0,0,1-11-11h0a11,11,0,0,1,11-11h10.72a3.15,3.15,0,0,0,3.14-3.14h0a11.37,11.37,0,0,1,11.37-11.37h0A11.37,11.37,0,0,1,606,390.12h0a12.29,12.29,0,0,1-12.29,12.29H573.16a2.16,2.16,0,0,0-2.16,2.16h0a2.16,2.16,0,0,0,2.16,2.16h10.26a8.51,8.51,0,0,1,8.5,8.5h0V419a7.52,7.52,0,0,1-7.52,7.52h0a2.16,2.16,0,0,0-2.16,2.16v2.09a1,1,0,0,1-1,1h-6.93a1,1,0,0,1-1-1Z" transform="translate(-9.46 -7.42)"/><path class="cls-40" d="M451.44,281.66a32.34,32.34,0,0,0-6.06-.33,48.62,48.62,0,0,0-3.3,6.42,27.37,27.37,0,0,0-1.64,5.08,10,10,0,0,0,6.91,2.32C448.33,290.58,449,285.5,451.44,281.66Z" transform="translate(-9.46 -7.42)"/><path class="cls-40" d="M477.26,281.18a32.2,32.2,0,0,0-6.05.26,47.83,47.83,0,0,0-2.67,6.71,25.78,25.78,0,0,0-1.14,5.21,10.08,10.08,0,0,0,7.1,1.64C475,290.36,475.18,285.24,477.26,281.18Z" transform="translate(-9.46 -7.42)"/><path class="cls-41" d="M482.32,290.43c2-5.91,1.43-8.44,1.36-8.7l-.13-.48-.47-.19a24.91,24.91,0,0,0-18.23.7,18.34,18.34,0,0,0-2.84,1.58v-.18l-3.43.14v-.15l-.47-.25a22.28,22.28,0,0,0-3.1-1.43,25.14,25.14,0,0,0-18.32.48l-.45.22-.1.48c-.06.28-.48,2.83,1.91,8.6a8,8,0,0,0,4.81,4.47,14.19,14.19,0,0,0,5.85.79c6.72-.73,7.91-4,8.69-6.12.05-.12.09-.23.13-.35a17.33,17.33,0,0,0,1-3.82,4.09,4.09,0,0,1,3,.06,17.19,17.19,0,0,0,1.3,4.2c.05.1.1.22.15.33.92,2.09,2.31,5.25,9.07,5.56a14.53,14.53,0,0,0,5.78-1.17A8,8,0,0,0,482.32,290.43Zm-33.85,4.1a12.75,12.75,0,0,1-4.94-.68,6,6,0,0,1-3.68-3.36,19.76,19.76,0,0,1-1.82-7,23.47,23.47,0,0,1,16.23-.19,21.94,21.94,0,0,1,2.34,1,13.84,13.84,0,0,1-1,5,1.49,1.49,0,0,1-.13.37C454.76,291.68,453.94,293.93,448.47,294.53ZM477,293.38a12.47,12.47,0,0,1-4.89,1c-5.5-.25-6.46-2.43-7.31-4.36l-.16-.36a14,14,0,0,1-1.29-4.88,19.55,19.55,0,0,1,2.26-1.2,23.39,23.39,0,0,1,16.21-.84,19.83,19.83,0,0,1-1.37,7.06A6,6,0,0,1,477,293.38Z" transform="translate(-9.46 -7.42)"/><path class="cls-40" d="M653.44,207.89a25.14,25.14,0,0,0-5.13-.31,49.23,49.23,0,0,0-2.8,6.14,27.15,27.15,0,0,0-1.39,4.85,7.87,7.87,0,0,0,5.86,2.22C650.81,216.42,651.35,211.56,653.44,207.89Z" transform="translate(-9.46 -7.42)"/><path class="cls-40" d="M675.34,207.43a24.49,24.49,0,0,0-5.13.25,49.77,49.77,0,0,0-2.27,6.41,28.39,28.39,0,0,0-1,5,7.75,7.75,0,0,0,6,1.57C673.45,216.21,673.58,211.31,675.34,207.43Z" transform="translate(-9.46 -7.42)"/><path class="cls-41" d="M679.63,216.28c1.71-5.66,1.21-8.07,1.15-8.33l-.11-.46-.39-.17a18.9,18.9,0,0,0-15.47.66,15,15,0,0,0-2.4,1.52v-.17l-2.91.13v-.15l-.39-.24a19.88,19.88,0,0,0-2.63-1.37,19.11,19.11,0,0,0-15.53.47l-.39.2-.08.47c-.05.26-.41,2.7,1.62,8.23a7.17,7.17,0,0,0,4.08,4.27,11,11,0,0,0,5,.76c5.7-.71,6.7-3.81,7.37-5.86a1.07,1.07,0,0,1,.11-.33,18.47,18.47,0,0,0,.83-3.66,3.13,3.13,0,0,1,2.56.06,18,18,0,0,0,1.11,4,.91.91,0,0,0,.13.33c.78,2,2,5,7.68,5.31a11,11,0,0,0,4.91-1.12A7.34,7.34,0,0,0,679.63,216.28Zm-28.7,3.92a9.51,9.51,0,0,1-4.19-.64,5.47,5.47,0,0,1-3.12-3.22,21.19,21.19,0,0,1-1.54-6.66,17.75,17.75,0,0,1,13.76-.19,18.65,18.65,0,0,1,2,1,15.06,15.06,0,0,1-.83,4.75,3.58,3.58,0,0,0-.11.35C656.26,217.48,655.57,219.62,650.93,220.2Zm24.17-1.1a9.6,9.6,0,0,1-4.14,1c-4.67-.24-5.48-2.33-6.2-4.17a1,1,0,0,0-.14-.35,14.74,14.74,0,0,1-1.1-4.67A17.28,17.28,0,0,1,679.19,209a21.34,21.34,0,0,1-1.16,6.76,5.55,5.55,0,0,1-2.93,3.38Z" transform="translate(-9.46 -7.42)"/><path class="cls-40" d="M296.93,276.07a23.38,23.38,0,0,0-5,.58,52.45,52.45,0,0,0-1.65,6.53,30,30,0,0,0-.51,5,7.47,7.47,0,0,0,6,1.17C295.85,284.92,295.55,280.05,296.93,276.07Z" transform="translate(-9.46 -7.42)"/><path class="cls-40" d="M317.79,271.82a23.92,23.92,0,0,0-4.87,1.13,54.22,54.22,0,0,0-1.09,6.71,30.79,30.79,0,0,0-.08,5.08,7.33,7.33,0,0,0,6,.5C317.46,280.79,316.76,276,317.79,271.82Z" transform="translate(-9.46 -7.42)"/><path class="cls-41" d="M323.38,279.79c.68-5.87-.2-8.16-.3-8.4l-.19-.43-.4-.11a17.9,17.9,0,0,0-14.67,3.34,14.82,14.82,0,0,0-2.05,1.91v-.17l-2.76.63-.07-.14-.41-.16a18.68,18.68,0,0,0-2.74-.9A18.17,18.17,0,0,0,285,278.51l-.33.27v.47c0,.27.06,2.74,2.93,7.83a7,7,0,0,0,4.62,3.5,10.41,10.41,0,0,0,4.87-.11c5.33-1.69,5.77-4.91,6.06-7.05v-.35a18.11,18.11,0,0,0,.18-3.75,3,3,0,0,1,2.47-.38,17.8,17.8,0,0,0,1.73,3.76l.18.3c1.08,1.83,2.71,4.6,8.24,3.9a10.67,10.67,0,0,0,4.5-1.95A7.41,7.41,0,0,0,323.38,279.79Zm-26.79,8.83a9.06,9.06,0,0,1-4.11.1,5.33,5.33,0,0,1-3.52-2.63,21.11,21.11,0,0,1-2.59-6.29,16.84,16.84,0,0,1,13.12-2.57,16.37,16.37,0,0,1,2.06.64,15.58,15.58,0,0,1,0,4.82.92.92,0,0,1-.05.36C301.24,285,300.93,287.25,296.59,288.62Zm22.93-5.26a9.37,9.37,0,0,1-3.8,1.65c-4.5.57-5.63-1.35-6.63-3-.06-.11-.13-.21-.19-.31a15,15,0,0,1-1.83-4.41,16.28,16.28,0,0,1,1.64-1.46,16.85,16.85,0,0,1,13-3.18,21.86,21.86,0,0,1,0,6.85A5.62,5.62,0,0,1,319.52,283.36Z" transform="translate(-9.46 -7.42)"/><path class="cls-42" d="M505,251.1a14.75,14.75,0,0,1-8.15,5.82c2.68-2.85,5.23-6.7,4.8-10.72a.3.3,0,0,0-.34-.25l-.08,0a7.52,7.52,0,0,0-1.43,1.15c-2.44,2.25-6.44,2.16-9.38,1.1-5.15-1.85-9.38-5.49-14-8.32a29.52,29.52,0,0,0-16.65-4.63,30.74,30.74,0,0,0-9.38,1.92c-7.38,2.72-16.15,8-18.12,16.27-.27,1.14-1.27,7.88.06,10.3.35.65,5.44,7.28,8.08,8.42,10.89,4.72,23.77,6.1,33.4,3.46,10.81-3,22.71-10.46,28.93-19.59a30.06,30.06,0,0,0,2.77-4.67.28.28,0,0,0-.12-.39.28.28,0,0,0-.39.11Z" transform="translate(-9.46 -7.42)"/><path class="cls-42" d="M697.92,180.12a14.9,14.9,0,0,1-7.95,5.15c2.63-2.5,5.15-5.86,4.78-9.33a.28.28,0,0,0-.33-.22l-.06,0a7.6,7.6,0,0,0-1.4,1c-2.39,2-6.24,2-9.06,1.09-4.95-1.53-9-4.61-13.4-7a30.17,30.17,0,0,0-16-3.76,33,33,0,0,0-9.07,1.8c-7.15,2.45-15.69,7.13-17.71,14.31-.27,1-1.34,6.83-.1,8.9.34.56,5.14,6.21,7.67,7.16,10.44,3.91,22.84,4.91,32.17,2.5,10.46-2.72,22-9.37,28.18-17.35a26.66,26.66,0,0,0,2.75-4.07C698.54,180.09,698.1,179.88,697.92,180.12Z" transform="translate(-9.46 -7.42)"/><path class="cls-42" d="M338.67,232.8c-.6,2.94-2.27,6.19-4.71,7.81,1.21-3.42,2-7.72.13-11.28a.28.28,0,0,0-.39-.12l-.05,0a6.48,6.48,0,0,0-.78,1.5c-1.23,2.8-4.61,3.93-7.46,3.85-5-.14-9.85-2.18-14.75-3.37a23.55,23.55,0,0,0-22.79,5.41c-5.19,4.73-10.63,12.21-9.27,20.4.19,1.13,1.79,7.61,3.78,9.42.53.49,7.19,5,9.82,5.27,10.83,1,22.13-1.63,29.23-7,8-6,15.24-16.47,17.13-26.73a29.37,29.37,0,0,0,.63-5.12C339.2,232.59,338.73,232.49,338.67,232.8Z" transform="translate(-9.46 -7.42)"/><path class="cls-42" d="M441.54,254.82s.69,11.27-4,16.73-5.13,16.58-5.13,16.58-17.15-21.87,2.35-34.61C434.77,253.52,438.67,252,441.54,254.82Z" transform="translate(-9.46 -7.42)"/><path class="cls-42" d="M294.78,239.15s.44,12-4.68,17.73-5.9,17.54-5.9,17.54-17.71-23.76,3.4-36.83C287.6,237.59,291.8,236,294.78,239.15Z" transform="translate(-9.46 -7.42)"/><path class="cls-42" d="M637.83,185.32s3.88,11.4.44,18.36-.81,18.54-.81,18.54-24.27-17.58-7.15-36.29C630.31,185.93,634,183.2,637.83,185.32Z" transform="translate(-9.46 -7.42)"/><path class="cls-42" d="M319,255.34a61.24,61.24,0,0,1,10.26,27.44s11.92-17.74.55-32.7C329.78,250.08,317.31,244.81,319,255.34Z" transform="translate(-9.46 -7.42)"/><path class="cls-42" d="M476.8,264.11a57.41,57.41,0,0,1,9.62,25.75s11.18-16.64.52-30.69C486.94,259.17,475.24,254.23,476.8,264.11Z" transform="translate(-9.46 -7.42)"/><rect class="cls-43" x="82.78" y="212.46" width="44.2" height="44.2"/><path d="M121.93,254.41a4.53,4.53,0,0,0,4.09,2.52c1.72,0,2.82-.86,2.82-2.05,0-1.42-1.13-1.92-3-2.75l-1-.45c-3-1.27-5-2.87-5-6.26,0-3.11,2.38-5.48,6.09-5.48a6.13,6.13,0,0,1,5.9,3.32l-3.23,2.08a2.82,2.82,0,0,0-2.67-1.78,1.81,1.81,0,0,0-2,1.78c0,1.25.77,1.75,2.55,2.52l1,.45c3.53,1.51,5.52,3.05,5.52,6.52,0,3.74-2.94,5.79-6.88,5.79s-6.35-1.84-7.57-4.25Zm-14.68.36c.66,1.16,1.25,2.14,2.68,2.14s2.22-.54,2.22-2.61V240.17h4.16v14.18c0,4.3-2.53,6.26-6.21,6.26a6.45,6.45,0,0,1-6.23-3.79Z" transform="translate(-9.46 -7.42)"/><path class="cls-44" d="M67.61,50.56c0,33.12-29.07,43.13-29.07,43.13S9.46,83.68,9.46,50.56a83.63,83.63,0,0,1,.65-10.18,9.48,9.48,0,0,1,7.1-8.23,79.69,79.69,0,0,1,21.33-3.07A82,82,0,0,1,60,32.15a9.67,9.67,0,0,1,7.11,8.23C67.29,43.13,67.61,46.68,67.61,50.56Z" transform="translate(-9.46 -7.42)"/><path class="cls-45" d="M38.54,33.92a80.4,80.4,0,0,1,20.19,2.91A4.85,4.85,0,0,1,62.28,41a89.91,89.91,0,0,1,.49,9.53c0,25.2-18.58,35.38-24.23,37.8-5.66-2.58-24.23-12.76-24.23-37.8A92.68,92.68,0,0,1,14.79,41a4.66,4.66,0,0,1,3.56-4.2,80.25,80.25,0,0,1,20.19-2.91m0-4.84a82.06,82.06,0,0,0-21.49,3.07,9.5,9.5,0,0,0-6.94,8.23,85.93,85.93,0,0,0-.65,10.18c0,33.12,29.08,43.13,29.08,43.13s29.07-10,29.07-43.13A86,86,0,0,0,67,40.38a9.49,9.49,0,0,0-7.11-8.23,79.61,79.61,0,0,0-21.32-3.07Z" transform="translate(-9.46 -7.42)"/><path class="cls-46" d="M36.92,67.85h3.23V80.77H36.92Z" transform="translate(-9.46 -7.42)"/><path class="cls-45" d="M38.54,38.77s-9.69,8.08-9.69,21c0,8.4,5.33,13.73,8.07,16.15l1.62-4.84,1.61,4.84c2.75-2.42,8.08-7.75,8.08-16.15C48.23,46.85,38.54,38.77,38.54,38.77Z" transform="translate(-9.46 -7.42)"/><path class="cls-47" d="M38.54,38.77s-9.69,8.08-9.69,21c0,8.4,5.33,13.73,8.07,16.15l1.62-4.84Z" transform="translate(-9.46 -7.42)"/><path class="cls-48" d="M662.15,21.66,638.72,8.05a5.08,5.08,0,0,0-4.9,0L610.14,21.66A5.07,5.07,0,0,0,607.53,26V53.13a5.12,5.12,0,0,0,2.64,4.29L616.42,61c3,1.47,4.05,1.47,5.41,1.47,4.43,0,7-2.68,7-7.35V28.27c0-.38-.2-.95-.57-.95h-3c-.38,0-1.22.57-1.22.95V55.1c0,2.07-1.88,4.13-5.38,2.38l-6.46-3.73a.71.71,0,0,1-.39-.62V26c0-.26.3-.52.53-.65l23.61-13.58a.79.79,0,0,1,.76,0L660,25.3c.23.13.15.38.15.65V53.13c0,.26.09.51-.13.63l-23.43,13.6a.67.67,0,0,1-.67,0l-6-3.59a.58.58,0,0,0-.57-.05,15.34,15.34,0,0,1-3.55,1.62c-.38.13-.95.37.22,1L633.88,71a5,5,0,0,0,5,0l23.32-13.6a4.78,4.78,0,0,0,2.25-4.29V26A4.75,4.75,0,0,0,662.15,21.66ZM643.62,48.82c-6.23,0-7.6-1.72-8.06-4.82,0-.33-.33-.73-.67-.73h-3c-.38,0-.68.45-.68.83,0,4,2.16,8.78,12.46,8.78,7.47,0,11.74-2.9,11.74-8s-3.43-6.43-10.67-7.38-8.06-1.46-8.06-3.17c0-1.42.63-3.3,6-3.3,4.84,0,6.62,1,7.36,4.3a.66.66,0,0,0,.65.53h3.06a.71.71,0,0,0,.5-.21.68.68,0,0,0,.18-.52c-.47-5.62-4.21-8.24-11.75-8.24C636,26.86,632,29.7,632,34.45c0,5.15,4,6.58,10.43,7.22,7.71.75,8.31,1.88,8.31,3.39C650.7,47.7,648.58,48.82,643.62,48.82Z" transform="translate(-9.46 -7.42)"/><rect class="cls-49" x="18.07" y="391.55" width="47.59" height="47.59" rx="4.65"/><path class="cls-4" d="M57,436.8v4.64a10.31,10.31,0,0,0,2.7.88,18,18,0,0,0,3.25.28,15.4,15.4,0,0,0,3.16-.31,8.32,8.32,0,0,0,2.61-1,4.63,4.63,0,0,0,1.76-2,7,7,0,0,0,.66-3,6.13,6.13,0,0,0-.38-2.23,4.34,4.34,0,0,0-1.11-1.67A7.63,7.63,0,0,0,68,431.13,20.14,20.14,0,0,0,65.73,430c-.61-.25-1.11-.49-1.67-.73a8.36,8.36,0,0,1-1.21-.73,3.44,3.44,0,0,1-.79-.78,1.62,1.62,0,0,1-.28-.93A1.52,1.52,0,0,1,62,426a2.12,2.12,0,0,1,.7-.66,3.49,3.49,0,0,1,1.12-.43,6.55,6.55,0,0,1,1.48-.15,8.42,8.42,0,0,1,1.21.09,10,10,0,0,1,1.3.27,10.53,10.53,0,0,1,1.3.45,6.69,6.69,0,0,1,1.12.64v-4.37a11.51,11.51,0,0,0-2.33-.6,18.48,18.48,0,0,0-2.88-.2,14.23,14.23,0,0,0-3.16.36,7.31,7.31,0,0,0-2.6,1.11,5.5,5.5,0,0,0-1.77,2,5.58,5.58,0,0,0-.65,2.78,5.25,5.25,0,0,0,1.21,3.54,9.81,9.81,0,0,0,3.63,2.51c.64.26,1.21.52,1.76.77a7.77,7.77,0,0,1,1.4.78,3.43,3.43,0,0,1,.93.88,1.87,1.87,0,0,1,.35,1.12,1.73,1.73,0,0,1-.21.83,1.84,1.84,0,0,1-.66.67,3.63,3.63,0,0,1-1.12.45,6.93,6.93,0,0,1-1.58.16,8.49,8.49,0,0,1-3-.53,9,9,0,0,1-2.79-1.58Zm-7.8-11.44h6v-3.81H38.5v3.81h6v17h4.74Z" transform="translate(-9.46 -7.42)"/></svg>